HIERARCHY
ROOT Hips
{
     OFFSET 1.88212 96.90440 -13.34250
     CHANNELS 6 Xposition Yposition Zposition Zrotation Xrotation Yrotation
     JOINT Spine
     {
          OFFSET 0.00000 11.89050 0.00000
          CHANNELS 3 Zrotation Xrotation Yrotation
          JOINT Spine1
          {
               OFFSET -0.00000 25.65740 0.12766
               CHANNELS 3 Zrotation Xrotation Yrotation
               JOINT HEad
               {
                    OFFSET 0.00000 8.73416 0.01134
                    CHANNELS 3 Zrotation Xrotation Yrotation
                    End Site
                    {
                         OFFSET -0.29000 12.77420 2.51395
                    }
               }
               JOINT LeftShoulder1
               {
                    OFFSET 8.99000 -0.36225 -0.22000
                    CHANNELS 3 Zrotation Xrotation Yrotation
                    JOINT LeftArm
                    {
                         OFFSET 10.28270 -0.00338 0.32212
                         CHANNELS 3 Zrotation Xrotation Yrotation
                         JOINT LeftForeArm
                         {
                              OFFSET 32.76690 0.09914 -1.42434
                              CHANNELS 3 Zrotation Xrotation Yrotation
                              JOINT LeftHand
                              {
                                   OFFSET 27.56430 0.08536 1.02216
                                   CHANNELS 3 Zrotation Xrotation Yrotation
                                   End Site
                                   {
                                        OFFSET 16.74430 -0.60000 1.50291
                                   }
                              }
                         }
                    }
               }
               JOINT RightShoulder
               {
                    OFFSET -8.99000 -0.36225 -0.22000
                    CHANNELS 3 Zrotation Xrotation Yrotation
                    JOINT RightArm
                    {
                         OFFSET -10.28270 -0.00338 0.32212
                         CHANNELS 3 Zrotation Xrotation Yrotation
                         JOINT RightForeArm
                         {
                              OFFSET -32.89710 0.09914 -1.42434
                              CHANNELS 3 Zrotation Xrotation Yrotation
                              JOINT RightHand
                              {
                                   OFFSET -27.49210 0.08536 1.02216
                                   CHANNELS 3 Zrotation Xrotation Yrotation
                                   End Site
                                   {
                                        OFFSET -16.63120 -0.60000 1.50291
                                   }
                              }
                         }
                    }
               }
          }
     }
     JOINT LeftUpLeg
     {
          OFFSET 8.94580 -8.66707 0.10165
          CHANNELS 3 Zrotation Xrotation Yrotation
          JOINT LeftLeg
          {
               OFFSET 0.00000 -44.42270 1.37270
               CHANNELS 3 Zrotation Xrotation Yrotation
               JOINT LeftFoot
               {
                    OFFSET -0.25355 -42.09240 -1.46059
                    CHANNELS 3 Zrotation Xrotation Yrotation
                    JOINT LeftToes
                    {
                         OFFSET -0.04000 -4.41509 8.49910
                         CHANNELS 3 Zrotation Xrotation Yrotation
                         End Site
                         {
                              OFFSET 0.08000 -0.04745 9.77979
                         }
                    }
               }
          }
     }
     JOINT RightUpLeg
     {
          OFFSET -8.94580 -8.66707 0.10165
          CHANNELS 3 Zrotation Xrotation Yrotation
          JOINT RightLeg
          {
               OFFSET 0.00000 -44.42270 1.37270
               CHANNELS 3 Zrotation Xrotation Yrotation
               JOINT RightFoot
               {
                    OFFSET 0.25355 -42.09240 -1.46059
                    CHANNELS 3 Zrotation Xrotation Yrotation
                    JOINT RightToes
                    {
                         OFFSET 0.04000 -4.41509 8.49910
                         CHANNELS 3 Zrotation Xrotation Yrotation
                         End Site
                         {
                              OFFSET -0.08000 -0.13745 9.77979
                         }
                    }
               }
          }
     }
}
MOTION
Frames: 12
Frame Time: 0.01667
44.74178 90.45918 -114.54939 4.21022 -1.52943 -14.63421 -6.31032 5.23881 5.91437 -0.03879 0.10240 -0.07314 -34.57144 -5.43577 39.20204 -1.38550 18.23917 -6.97401 179.58803 -77.95448 214.32880 -48.21151 60.13775 -92.03881 5.05687 6.52252 0.65942 17.93171 17.20284 -6.56878 66.74941 -0.75963 80.29721 16.48069 26.82844 87.72746 11.84050 10.81980 0.46355 7.06920 -23.79032 17.98619 4.85542 27.19595 -17.74382 39.57524 -0.02981 0.00238 -48.20700 -2.63108 -10.08241 -19.99662 6.09036 25.35923 20.05371 21.22788 -34.46983 36.65154 0.00058 0.05839 -35.37542 -33.63902 -12.92011 
44.48605 90.99686 -113.94904 3.69148 -2.16183 -14.28481 -8.44316 5.85027 3.38641 -0.02655 0.10302 -0.06564 -33.22256 -4.69826 38.64527 -0.77466 18.06405 -3.97624 206.64880 -72.36395 238.48225 -40.04034 59.07321 -92.12084 5.94551 6.72912 0.19626 18.93030 17.67870 -5.02633 67.49089 0.64932 79.73853 9.63384 23.16555 83.50918 16.18377 9.29990 6.92476 8.06959 -21.31428 15.23951 0.85442 25.61984 -8.42494 40.46613 -0.04529 0.01652 -47.68983 -1.29883 -16.59836 -21.48943 8.11402 25.11957 22.95130 15.81762 -37.06205 33.23200 -0.03937 0.10528 -34.67281 -32.06345 -10.88160 
44.33807 91.43953 -113.61374 3.14904 -2.95626 -14.16888 -10.68574 7.83908 0.70131 -0.01452 0.10227 -0.05247 -31.40357 -3.87502 37.34998 -0.05998 16.75658 -0.71550 215.99194 -68.23914 245.91093 -35.18228 58.69371 -92.27848 6.79655 7.11463 -0.16703 19.74387 17.27260 -2.61807 68.42902 1.90474 78.82035 5.25068 21.61921 82.06441 16.91552 7.08528 13.97077 9.26418 -18.85321 11.66670 -3.66884 23.66799 3.24028 41.55138 -0.06272 0.03353 -47.01226 -0.10843 -24.43647 -23.40163 10.00178 24.05344 26.20232 10.74277 -39.27770 29.07678 -0.09493 0.13924 -32.88809 -30.49345 -6.78487 
44.32142 91.79430 -113.55898 2.57414 -3.88255 -14.27258 -12.77328 11.06876 -1.92833 -0.00125 0.10265 -0.03779 -29.20792 -2.94281 35.40433 0.79783 14.45121 2.59314 219.84428 -65.92954 248.55925 -32.44586 58.69659 -92.42234 7.69247 7.40800 -0.54151 20.37921 16.01155 0.54227 69.43789 2.83162 77.76236 2.58931 21.10500 82.15906 18.29915 7.41847 14.85348 10.61384 -16.50361 7.32676 -8.46953 21.18700 16.77668 42.85835 -0.08220 0.05466 -46.20488 0.74573 -33.21709 -25.59206 11.83466 22.26828 29.74966 6.19962 -41.07884 24.34089 -0.15510 0.15802 -30.47050 -29.46247 -2.05176 
44.45464 92.05286 -113.74007 1.96215 -4.88606 -14.57442 -14.45164 14.07404 -3.87661 0.02221 -0.00042 0.01570 -26.81672 -0.41001 33.02040 1.70641 12.63738 5.19745 221.22435 -64.88226 249.18036 -31.00428 58.93052 -92.46930 8.47407 7.74426 -0.92067 20.94802 15.01988 3.18311 70.45493 3.37809 76.72949 1.12678 21.06529 83.08332 18.15430 6.78287 17.11510 12.00261 -14.30822 2.25169 -12.64561 17.84054 29.45241 43.92532 -0.04952 0.04714 -45.26359 1.28257 -40.69123 -27.88476 13.62125 19.81793 33.47659 2.33860 -42.43883 19.11821 -0.21162 0.16309 -27.35800 -28.71376 3.56542 
44.73330 92.21404 -114.07224 1.31515 -5.90516 -15.04128 -15.78730 16.78714 -5.24009 0.02105 -0.00430 0.02026 -24.09445 3.30598 30.18139 2.58582 11.08122 7.30872 221.31157 -64.57925 248.77005 -30.32121 59.29831 -92.39091 9.25686 7.97366 -1.30288 21.45898 14.11719 5.45108 71.41330 3.59210 75.80050 0.45020 21.28200 84.33428 18.50758 7.46943 16.25709 13.30075 -12.26890 -3.52735 -16.03236 13.85091 41.30994 44.82018 -0.03355 0.03365 -44.22034 1.45866 -46.91133 -30.06222 15.75223 17.80295 37.00147 -1.78109 -43.94248 13.45331 -0.25591 0.16049 -23.68448 -28.14310 9.48143 
45.14673 92.27912 -114.45198 0.64600 -6.88892 -15.62679 -16.83186 19.18226 -6.12906 0.01950 -0.00297 0.02007 -20.91206 8.08583 26.85217 3.37098 9.82469 8.95427 220.65685 -64.66930 247.76868 -30.04451 59.72969 -92.19909 9.95551 8.19399 -1.68137 21.88310 13.34951 7.28011 72.30889 3.54341 75.01383 0.26438 21.61748 85.69828 18.20763 7.52894 16.73560 14.46972 -10.54350 -8.85820 -18.46642 9.95568 51.43417 45.51488 -0.02041 0.02338 -43.10084 1.16091 -52.02314 -31.95866 17.94838 16.11590 39.72134 -4.28373 -44.61224 9.04398 -0.19023 0.06997 -20.21050 -28.33569 14.38249 
45.67936 92.25721 -114.78002 -0.02811 -7.80423 -16.28213 -17.62137 21.25921 -6.64935 0.01751 -0.00153 0.01918 -17.04025 13.68874 22.95540 4.03231 8.82582 10.18635 219.62521 -64.92984 246.46857 -29.93643 60.15707 -91.93089 10.63176 8.32196 -2.05140 22.20372 12.69763 8.71133 73.15298 3.29701 74.37125 0.34619 22.02631 87.02084 18.23244 8.21479 15.58721 15.44745 -9.04054 -13.73830 -20.18258 6.36697 60.03674 45.94229 -0.00852 0.01469 -41.94514 0.35169 -56.13443 -33.47368 19.95149 14.64085 41.73320 -5.73138 -44.74468 5.43638 -0.12431 0.03446 -17.03127 -28.65419 18.27549 
46.31036 92.17194 -114.98540 -0.68787 -8.63465 -16.95948 -18.17550 23.03843 -6.90072 0.01529 -0.00045 0.01783 -13.30344 18.63915 19.12204 4.55143 8.04094 11.05955 218.55368 -65.23057 245.15317 -29.82505 60.50303 -91.64904 11.22139 8.42689 -2.40276 22.40847 12.14008 9.77499 73.95508 2.92556 73.86378 0.55202 22.46488 88.27199 17.95459 8.48677 15.48094 16.20994 -7.66850 -18.16855 -21.39965 3.19684 67.28115 46.04569 0.00018 0.00722 -40.79733 -0.94421 -59.37805 -34.56028 21.58117 13.27398 43.06858 -6.46161 -44.54885 2.38719 -0.08006 0.02203 -14.18456 -28.80724 21.33893 
47.01636 92.05135 -115.02896 -1.32428 -9.36757 -17.64120 -18.28237 24.15827 -6.91314 0.01005 0.00415 0.01516 -9.96280 23.27303 15.30464 4.68009 7.76744 11.44309 217.64014 -65.51068 243.97937 -29.60254 60.73142 -91.39803 11.75668 8.46328 -2.73168 22.30085 11.93503 10.27978 74.72781 2.47707 73.47982 0.78339 22.92390 89.40146 17.87088 8.99890 14.50127 16.78265 -6.39051 -22.12791 -22.30788 0.49305 73.30394 45.81181 0.00437 0.00109 -39.69420 -2.61512 -61.87827 -35.23304 22.77006 11.96597 43.76900 -6.66560 -44.14193 -0.20744 -0.04966 0.01674 -11.67473 -28.72581 23.68479 
47.77559 91.92320 -114.90210 -1.93199 -9.99439 -18.32038 -17.99713 24.72244 -6.73307 0.00484 0.00855 0.01230 -6.97283 27.50088 11.48305 4.45767 7.90084 11.39971 217.01460 -65.73376 243.06921 -29.22217 60.84250 -91.20808 12.20889 8.47917 -3.04059 21.92929 12.00988 10.30151 75.47430 2.00126 73.21060 0.98594 23.38728 90.41566 17.65846 9.26065 14.25428 17.20727 -5.20922 -25.59481 -23.04611 -1.74986 78.22341 45.27072 0.00449 -0.00339 -38.64881 -4.50691 -63.75035 -35.54807 23.52672 10.70507 43.90032 -6.44294 -43.57484 -2.38334 -0.02823 0.01334 -9.47300 -28.41061 25.41817 
48.56994 91.81107 -114.61829 -2.50896 -10.50984 -18.99610 -17.37799 24.82310 -6.38743 0.00007 0.01266 0.00942 -4.29960 31.26429 7.68781 3.94329 8.35832 10.99966 216.72105 -65.88496 242.47740 -28.67719 60.85655 -91.10043 12.61343 8.46009 -3.34034 21.35473 12.31027 9.92523 76.19286 1.52725 73.04488 1.12081 23.84979 91.31332 17.55467 9.62899 13.52397 17.52424 -4.14279 -28.55291 -23.70079 -3.56544 82.14722 44.47817 0.00203 -0.00613 -37.64992 -6.48230 -65.09449 -35.57911 23.89363 9.50394 43.54696 -5.85416 -42.86129 -4.16166 -0.01344 0.01022 -7.53433 -27.90034 26.60745 
